HIERARCHY
ROOT Hips
{
  OFFSET 3.13124 94.3669 -3.18751
  CHANNELS  6 Xposition Yposition Zposition Zrotation Xrotation Yrotation
  JOINT LeftUpLeg
  {
    OFFSET 8.64259 1.95398 -2.38835
    CHANNELS 3 Zrotation Xrotation Yrotation
    JOINT LeftLeg
    {
      OFFSET 43.7702 0 0
      CHANNELS 3 Zrotation Xrotation Yrotation
      JOINT LeftFoot
      {
        OFFSET 40.6238 0 0
        CHANNELS 3 Zrotation Xrotation Yrotation
        JOINT LeftToeBase
        {
          OFFSET 12.7242 0 0
          CHANNELS 3 Zrotation Xrotation Yrotation
          End Site
          {
            OFFSET 0 0 0
          }
        }
      }
    }
  }
  JOINT RightUpLeg
  {
    OFFSET -8.2249 1.95398 -2.59336
    CHANNELS 3 Zrotation Xrotation Yrotation
    JOINT RightLeg
    {
      OFFSET 43.5653 0 0
      CHANNELS 3 Zrotation Xrotation Yrotation
      JOINT RightFoot
      {
        OFFSET 40.6238 0 0
        CHANNELS 3 Zrotation Xrotation Yrotation
        JOINT RightToeBase
        {
          OFFSET 12.7242 0 0
          CHANNELS 3 Zrotation Xrotation Yrotation
          End Site
          {
            OFFSET 0 0 0
          }
        }
      }
    }
  }
  JOINT Spine
  {
    OFFSET 0.165834 0.87714 6.61349
    CHANNELS 3 Zrotation Xrotation Yrotation
    JOINT Spine1
    {
      OFFSET 7.38962 1.71661e-005 0
      CHANNELS 3 Zrotation Xrotation Yrotation
      JOINT Spine2
      {
        OFFSET 11.9445 1.14441e-005 0
        CHANNELS 3 Zrotation Xrotation Yrotation
        JOINT Spine3
        {
          OFFSET 14.7254 4.19617e-005 0
          CHANNELS 3 Zrotation Xrotation Yrotation
          JOINT Spine4
          {
            OFFSET 10.9679 0 0
            CHANNELS 3 Zrotation Xrotation Yrotation
            JOINT RightShoulder
            {
              OFFSET 2.46616 -1.6653 3.69651
              CHANNELS 3 Zrotation Xrotation Yrotation
              JOINT RightArm
              {
                OFFSET 13.0012 0 0
                CHANNELS 3 Zrotation Xrotation Yrotation
                JOINT RightForeArm
                {
                  OFFSET 28.7848 1.52588e-005 0
                  CHANNELS 3 Zrotation Xrotation Yrotation
                  JOINT RightHand
                  {
                    OFFSET 26.5688 1.52588e-005 0
                    CHANNELS 3 Zrotation Xrotation Yrotation
                    End Site
                    {
                      OFFSET 0 0 0
                    }
                  }
                }
              }
            }
            JOINT LeftShoulder
            {
              OFFSET 2.38034 -1.29275 -3.75231
              CHANNELS 3 Zrotation Xrotation Yrotation
              JOINT LeftArm
              {
                OFFSET 16.3182 6.10352e-005 0
                CHANNELS 3 Zrotation Xrotation Yrotation
                JOINT LeftForeArm
                {
                  OFFSET 27.0901 0 0
                  CHANNELS 3 Zrotation Xrotation Yrotation
                  JOINT LeftHand
                  {
                    OFFSET 24.5451 1.52588e-005 0
                    CHANNELS 3 Zrotation Xrotation Yrotation
                    End Site
                    {
                      OFFSET 0 0 0
                    }
                  }
                }
              }
            }
            JOINT Neck
            {
              OFFSET 5.0226 -0.0266342 0
              CHANNELS 3 Zrotation Xrotation Yrotation
              JOINT Head
              {
                OFFSET 6.69363 2.86102e-005 0
                CHANNELS 3 Zrotation Xrotation Yrotation
                End Site
                {
                  OFFSET 0 0 0
                }
              }
            }
          }
        }
      }
    }
  }
}
MOTION
Frames:	6
Frame Time:	0.0333333
110.779 92.6429 44.303 -84.9137 -62.1515 -82.4531 -175.159 30.6363 87.6315 -42.4006 -12.9925 1.21409 69.3937 -20.943 -10.5903 28.7808 4.97299e-006 6.74399e-006 165.926 16.8862 80.1985 -7.20565 7.02669 -1.16321 56.0869 22.0421 14.8306 28.7808 1.41834e-005 2.4065e-005 -0.372665 12.7152 -87.5289 1.47013 1.2953 -0.326114 -10.2002 1.2797 -0.382822 -32.7405 1.33342 0.0783237 -12.7279 1.33342 0.0783235 79.9672 -30.5862 -125.581 27.6936 17.3316 -52.4637 5.31345 -0.304817 -16.1574 -5.37983 -0.320018 -0.0162402 -96.4881 -43.5463 66.9364 -35.5538 -2.23293 -60.9014 60.0721 18.1242 -68.9901 -47.8291 2.23649 -9.93666 -13.4612 5.53131 4.30949 5.27807 5.97815 8.63475 
111.002 92.6039 44.9964 -85.5617 -60.5583 -82.6554 -174.791 30.2081 88.0589 -42.8639 -13.8484 0.781134 70.4581 -21.1301 -10.4089 28.7808 4.97299e-006 6.74399e-006 165.894 16.7256 80.2572 -6.9358 6.65035 -0.971205 55.0924 22.6798 15.5719 28.7808 1.41834e-005 2.4065e-005 -0.33767 12.6546 -87.3724 1.59965 1.47214 -0.402222 -10.0705 1.45304 -0.466638 -32.6124 1.52498 0.0589124 -12.5998 1.52497 0.0589159 78.1985 -36.0462 -125.427 26.0376 21.5469 -43.6805 4.70559 -0.000149003 -12.445 -5.37983 -0.320018 -0.0162402 -97.2505 -44.0569 65.9328 -30.9065 0.481455 -56.3788 59.8537 19.4054 -69.8611 -44.3711 2.67202 -11.5602 -16.3328 5.29307 5.9294 6.48192 5.96654 8.73029 
111.155 92.7008 45.7006 -85.2116 -59.343 -81.7464 -174.283 30.089 88.7574 -43.0306 -13.5774 0.283201 71.6288 -20.0581 -9.58863 28.7808 4.97299e-006 6.74399e-006 165.86 16.5431 80.4812 -6.23588 7.41041 -0.723661 53.1809 22.2186 15.863 28.7808 1.41834e-005 2.4065e-005 -0.32084 12.5347 -87.3849 1.84172 1.49844 -0.450492 -9.82846 1.47717 -0.516029 -32.3706 1.56454 0.0207747 -12.3579 1.56455 0.0207878 77.035 -42.2947 -123.925 22.6759 25.97 -34.4528 3.90559 0.0708705 -12.7506 -5.37983 -0.320018 -0.0162402 -97.5119 -44.0199 65.513 -26.4407 4.05151 -52.7255 56.1868 19.3092 -69.8737 -38.9255 2.71277 -12.8344 -18.4568 5.33929 7.02772 7.2075 6.23378 8.94413 
111.244 92.8113 46.4767 -84.889 -58.6319 -80.9684 -173.705 30.0069 89.4012 -43.4451 -13.5216 -0.5375 71.96 -20.6278 -9.79211 28.7808 4.97299e-006 6.74399e-006 165.742 15.8677 80.367 -5.1781 10.0414 -0.338425 51.0604 22.0756 16.4416 28.7808 1.41834e-005 2.4065e-005 -0.411233 12.4082 -87.3072 2.08686 1.34487 -0.442299 -9.58349 1.3241 -0.501073 -32.1242 1.41561 -0.0175825 -12.1116 1.4156 -0.0175955 78.2644 -48.1794 -119.232 18.5986 28.8151 -26.1812 3.86137 -0.0195908 -14.4764 -5.37983 -0.320018 -0.0162402 -97.4358 -43.607 65.4767 -22.0197 8.21214 -50.1323 50.5707 19.1706 -69.4798 -30.2583 2.04264 -12.9328 -19.9993 5.78398 7.57358 7.40135 6.8612 9.40835 
111.15 92.9079 47.2206 -84.66 -57.7648 -80.2231 -173.004 29.8376 90.1478 -43.7916 -13.0126 -1.18243 72.8675 -19.7968 -9.17995 28.7808 4.97299e-006 6.74399e-006 165.806 14.7456 80.3985 -3.70414 13.1969 -0.0959712 49.2294 22.2965 17.2039 28.7808 1.41834e-005 2.4065e-005 -0.549971 12.2654 -87.1369 2.35931 1.13058 -0.342144 -9.31119 1.11443 -0.391574 -31.8503 1.18113 0.013511 -11.8377 1.18114 0.0135106 82.5377 -52.1162 -111.374 14.9961 29.3868 -19.3284 4.73844 -0.220535 -16.245 -5.37983 -0.320018 -0.0162402 -97.1092 -43.1022 65.7983 -17.7231 12.4877 -48.4652 51.1899 19.1671 -70.494 -30.6875 2.77349 -16.0618 -21.1689 6.61401 7.61403 7.27189 7.87276 10.6039 
111.026 93.0407 47.8539 -83.8707 -56.2316 -79.277 -172.393 30.0016 90.88 -44.0482 -13.3477 -2.19533 73.4018 -18.8383 -8.6083 28.7808 4.97299e-006 6.74399e-006 166.002 14.028 80.4995 -2.42995 15.5265 -0.0822632 47.7365 22.6325 17.9587 28.7808 1.41834e-005 2.4065e-005 -0.755257 12.0284 -86.7944 2.81263 0.886529 0.050112 -8.85803 0.887864 0.0110558 -31.3954 0.830465 0.314256 -11.3827 0.83048 0.314247 87.5708 -54.0437 -103.46 12.8633 30.2034 -13.9282 4.82784 -0.324464 -17.137 -5.37983 -0.320018 -0.0162402 -96.3644 -42.0512 66.5853 -11.9356 17.7345 -47.5308 50.4593 12.2122 -75.0578 -49.9336 -1.58463 -0.791391 -22.7435 7.82358 7.20252 7.30591 9.31674 12.1526 
